<svg xmlns="http://www.w3.org/2000/svg" xmlns:xlink="http://www.w3.org/1999/xlink" width="964" height="1080" viewBox="0 0 964 1080"><defs><filter id="a" x="64" y="268" width="838" height="683" filterUnits="userSpaceOnUse"><feOffset dy="3" input="SourceAlpha"/><feGaussianBlur stdDeviation="2" result="b"/><feFlood flood-opacity="0.141"/><feComposite operator="in" in2="b"/><feComposite in="SourceGraphic"/></filter><filter id="c" x="339.5" y="135.5" width="270.758" height="79.957" filterUnits="userSpaceOnUse"><feOffset dy="1" input="SourceAlpha"/><feGaussianBlur stdDeviation="1.5" result="d"/><feFlood flood-opacity="0.2"/><feComposite operator="in" in2="d"/><feComposite in="SourceGraphic"/></filter><filter id="e" x="784" y="889" width="24" height="26" filterUnits="userSpaceOnUse"><feOffset dy="2" input="SourceAlpha"/><feGaussianBlur stdDeviation="1" result="f"/><feFlood flood-opacity="0.365"/><feComposite operator="in" in2="f"/><feComposite in="SourceGraphic"/></filter><filter id="g" x="288.5" y="353.5" width="152" height="68" filterUnits="userSpaceOnUse"><feOffset dy="1" input="SourceAlpha"/><feGaussianBlur stdDeviation="1.5" result="h"/><feFlood flood-opacity="0.2"/><feComposite operator="in" in2="h"/><feComposite in="SourceGraphic"/></filter><filter id="i" x="477.326" y="297.5" width="392.174" height="65" filterUnits="userSpaceOnUse"><feOffset dy="1" input="SourceAlpha"/><feGaussianBlur stdDeviation="1.5" result="j"/><feFlood flood-opacity="0.2"/><feComposite operator="in" in2="j"/><feComposite in="SourceGraphic"/></filter><filter id="k" x="783" y="305" width="75" height="53" filterUnits="userSpaceOnUse"><feOffset dy="3" input="SourceAlpha"/><feGaussianBlur stdDeviation="3" result="l"/><feFlood flood-opacity="0.161"/><feComposite operator="in" in2="l"/><feComposite in="SourceGraphic"/></filter><clipPath id="n"><rect width="964" height="1080"/></clipPath></defs><g id="m" clip-path="url(#n)"><rect width="964" height="1080" fill="#eee"/><g transform="matrix(1, 0, 0, 1, 0, 0)" filter="url(#a)"><rect width="826" height="671" rx="4" transform="translate(70 271)" fill="#fff"/></g><g transform="translate(1 98)"><g transform="translate(343 41)"><g transform="matrix(1, 0, 0, 1, -344, -139)" filter="url(#c)"><rect width="261.758" height="70.957" rx="4" transform="translate(344 139)" fill="#6100ed"/></g><text transform="translate(60.068 43.422)" fill="#fff" font-size="20" font-family="Roboto-Bold, Roboto" font-weight="700" letter-spacing="0.089em"><tspan x="0" y="0">Withdraws</tspan></text></g><path d="M631.032,4.815a1.3,1.3,0,0,0,0,1.935l5.616,5.39-5.616,5.39a1.3,1.3,0,0,0,0,1.935,1.433,1.433,0,0,0,2.016,0l6.624-6.357a1.3,1.3,0,0,0,0-1.935l-6.624-6.357A1.433,1.433,0,0,0,631.032,4.815Z" transform="translate(-95.357 66.98)" fill="#fff"/></g><g transform="translate(72 -435)"><g transform="translate(80 746)" fill="none" stroke="#000" stroke-width="1" opacity="0.1"><rect width="79.086" height="36" rx="4" stroke="none"/><rect x="0.5" y="0.5" width="78.086" height="35" rx="3.5" fill="none"/></g><text transform="translate(100.917 770)" fill="#6100ed" font-size="14" font-family="Roboto-Medium, Roboto" font-weight="500" letter-spacing="0.089em"><tspan x="0" y="0">Clear</tspan></text></g><g transform="translate(0 81)"><g transform="translate(-71 -105)"><rect width="827" height="64" transform="translate(140 512)" fill="#f3f3f3"/></g><g transform="translate(-71 -169)"><g transform="translate(140 512)" fill="#fff" stroke="#e2e2e2" stroke-linecap="round" stroke-linejoin="round" stroke-width="0.5"><rect width="827" height="64" stroke="none"/><rect x="0.25" y="0.25" width="826.5" height="63.5" fill="none"/></g></g><g transform="translate(-71 -41)"><g transform="translate(140 512)" fill="#fff" stroke="#e2e2e2" stroke-linecap="round" stroke-linejoin="round" stroke-width="0.5"><rect width="827" height="64" stroke="none"/><rect x="0.25" y="0.25" width="826.5" height="63.5" fill="none"/></g></g><g transform="translate(-71 22)"><g transform="translate(140 512)" fill="#fff" stroke="#e2e2e2" stroke-linecap="round" stroke-linejoin="round" stroke-width="0.5"><rect width="827" height="64" stroke="none"/><rect x="0.25" y="0.25" width="826.5" height="63.5" fill="none"/></g></g><g transform="translate(-71 85)"><g transform="translate(140 512)" fill="#fff" stroke="#e2e2e2" stroke-linecap="round" stroke-linejoin="round" stroke-width="0.5"><rect width="827" height="64" stroke="none"/><rect x="0.25" y="0.25" width="826.5" height="63.5" fill="none"/></g></g><g transform="translate(-71 148)"><g transform="translate(140 512)" fill="#fff" stroke="#e2e2e2" stroke-linecap="round" stroke-linejoin="round" stroke-width="0.5"><rect width="827" height="64" stroke="none"/><rect x="0.25" y="0.25" width="826.5" height="63.5" fill="none"/></g></g><g transform="translate(-71 211)"><g transform="translate(140 512)" fill="#fff" stroke="#e2e2e2" stroke-linecap="round" stroke-linejoin="round" stroke-width="0.5"><rect width="827" height="64" stroke="none"/><rect x="0.25" y="0.25" width="826.5" height="63.5" fill="none"/></g></g><g transform="translate(-190 -537)" opacity="0.5"><rect width="24" height="24" transform="translate(812 1344)" fill="none"/><path d="M10.6,7.4,6,2.8,1.4,7.4,0,6,6,0l6,6Z" transform="translate(820.3 1361.7) rotate(-90)"/></g><circle cx="20" cy="20" r="20" transform="translate(846 799)" fill="#eaeaea"/><g transform="translate(90 -537)" opacity="0.5"><rect width="24" height="24" transform="translate(764 1344)" fill="none"/><path d="M10.6,7.4,6,2.8,1.4,7.4,0,6,6,0l6,6Z" transform="translate(779.7 1349.7) rotate(90)"/></g><g transform="translate(9 42)"><rect width="18" height="20" rx="2" transform="translate(653 767)" fill="#eaeaea" opacity="0.356"/><text transform="translate(659 769)" font-size="12" font-family="Roboto-Bold, Roboto" font-weight="700" letter-spacing="0.089em" opacity="0.3"><tspan x="0" y="13">1</tspan></text></g><g transform="translate(34 42)"><rect width="18" height="20" rx="2" transform="translate(653 767)" fill="#eaeaea" opacity="0.356"/><text transform="translate(659 769)" font-size="12" font-family="Roboto-Bold, Roboto" font-weight="700" letter-spacing="0.089em" opacity="0.3"><tspan x="0" y="13">2</tspan></text></g><g transform="translate(59 42)"><rect width="18" height="20" rx="2" transform="translate(653 767)" fill="#eaeaea" opacity="0.356"/><text transform="translate(659 769)" font-size="12" font-family="Roboto-Bold, Roboto" font-weight="700" letter-spacing="0.089em" opacity="0.3"><tspan x="0" y="13">3</tspan></text></g><g transform="translate(84 42)"><rect width="18" height="20" rx="2" transform="translate(653 767)" fill="#eaeaea" opacity="0.356"/><text transform="translate(659 769)" font-size="12" font-family="Roboto-Bold, Roboto" font-weight="700" letter-spacing="0.089em" opacity="0.3"><tspan x="0" y="13">4</tspan></text></g><g transform="translate(109 42)"><rect width="18" height="20" rx="2" transform="translate(653 767)" fill="#eaeaea" opacity="0.356"/><text transform="translate(659 769)" font-size="12" font-family="Roboto-Bold, Roboto" font-weight="700" letter-spacing="0.089em" opacity="0.3"><tspan x="0" y="13">5</tspan></text></g><g transform="translate(134 42)"><g transform="matrix(1, 0, 0, 1, -134, -123)" filter="url(#e)"><rect width="18" height="20" rx="2" transform="translate(787 890)" fill="#eaeaea" opacity="0.356"/></g><text transform="translate(659 769)" font-size="12" font-family="Roboto-Bold, Roboto" font-weight="700" letter-spacing="0.089em" opacity="0.5"><tspan x="0" y="13">6</tspan></text></g><g transform="translate(159 42)"><rect width="18" height="20" rx="2" transform="translate(653 767)" fill="#eaeaea" opacity="0.356"/><text transform="translate(659 769)" font-size="12" font-family="Roboto-Bold, Roboto" font-weight="700" letter-spacing="0.089em" opacity="0.2"><tspan x="0" y="13">7</tspan></text></g><g transform="translate(-6 -4)"><text transform="translate(101.5 370.5)" fill="rgba(0,0,0,0.87)" font-size="16" font-family="Roboto-Regular, Roboto"><tspan x="0" y="17">Uuid</tspan></text><text transform="translate(274.5 370.5)" fill="rgba(0,0,0,0.87)" font-size="16" font-family="Roboto-Regular, Roboto"><tspan x="0" y="17" xml:space="preserve"> Updated at</tspan></text><text transform="translate(419.5 370.5)" fill="rgba(0,0,0,0.87)" font-size="16" font-family="Roboto-Regular, Roboto"><tspan x="0" y="17" xml:space="preserve"> Side</tspan></text><text transform="translate(513.5 370.5)" fill="rgba(0,0,0,0.87)" font-size="16" font-family="Roboto-Regular, Roboto"><tspan x="0" y="17" xml:space="preserve"> Volume</tspan></text><text transform="translate(615.5 370.5)" fill="rgba(0,0,0,0.87)" font-size="16" font-family="Roboto-Regular, Roboto"><tspan x="0" y="17">Price ( $ )</tspan></text><text transform="translate(709.5 370.5)" fill="rgba(0,0,0,0.87)" font-size="16" font-family="Roboto-Regular, Roboto"><tspan x="0" y="17" xml:space="preserve"> Trading pair symbol</tspan></text></g><text transform="translate(96 495)" fill="rgba(0,0,0,0.62)" font-size="16" font-family="HelveticaNeue, Helvetica Neue"><tspan x="0" y="15">0739f432-ae09-3…</tspan></text><text transform="translate(96 422)" fill="rgba(0,0,0,0.62)" font-size="16" font-family="HelveticaNeue, Helvetica Neue"><tspan x="0" y="15">19402a95-c53c-2…</tspan></text><text transform="translate(96 558)" fill="rgba(0,0,0,0.62)" font-size="16" font-family="HelveticaNeue, Helvetica Neue"><tspan x="0" y="15">19402a95-c53c-4…</tspan></text><text transform="translate(96 621)" fill="rgba(0,0,0,0.62)" font-size="16" font-family="HelveticaNeue, Helvetica Neue"><tspan x="0" y="15">5739f432-ae09-9…</tspan></text><text transform="translate(93 684)" fill="rgba(0,0,0,0.62)" font-size="16" font-family="HelveticaNeue, Helvetica Neue"><tspan x="0" y="15">39402a95-c53c-1…</tspan></text><text transform="translate(96 747)" fill="rgba(0,0,0,0.62)" font-size="16" font-family="HelveticaNeue, Helvetica Neue"><tspan x="0" y="15">0139f432-ae09-4…</tspan></text><text transform="translate(272 495)" fill="rgba(0,0,0,0.62)" font-size="16" font-family="HelveticaNeue, Helvetica Neue"><tspan x="0" y="15">1551205365000</tspan></text><text transform="translate(272 422)" fill="rgba(0,0,0,0.62)" font-size="16" font-family="HelveticaNeue, Helvetica Neue"><tspan x="0" y="15">1536843096000</tspan></text><text transform="translate(272 558)" fill="rgba(0,0,0,0.62)" font-size="16" font-family="HelveticaNeue, Helvetica Neue"><tspan x="0" y="15">1536843096000</tspan></text><text transform="translate(272 621)" fill="rgba(0,0,0,0.62)" font-size="16" font-family="HelveticaNeue, Helvetica Neue"><tspan x="0" y="15">1536843096000</tspan></text><text transform="translate(269 684)" fill="rgba(0,0,0,0.62)" font-size="16" font-family="HelveticaNeue, Helvetica Neue"><tspan x="0" y="15">1536843096000</tspan></text><text transform="translate(272 747)" fill="rgba(0,0,0,0.62)" font-size="16" font-family="HelveticaNeue, Helvetica Neue"><tspan x="0" y="15">1536843096000</tspan></text><text transform="translate(418 495)" fill="rgba(0,0,0,0.62)" font-size="16" font-family="Roboto-Regular, Roboto"><tspan x="0" y="17">ASK</tspan></text><text transform="translate(417 421)" fill="rgba(0,0,0,0.62)" font-size="16" font-family="Roboto-Regular, Roboto"><tspan x="0" y="17">ASK</tspan></text><text transform="translate(418 558)" fill="rgba(0,0,0,0.62)" font-size="16" font-family="Roboto-Regular, Roboto"><tspan x="0" y="17">ASK</tspan></text><text transform="translate(418 621)" fill="rgba(0,0,0,0.62)" font-size="16" font-family="Roboto-Regular, Roboto"><tspan x="0" y="17">ASK</tspan></text><text transform="translate(415 684)" fill="rgba(0,0,0,0.62)" font-size="16" font-family="Roboto-Regular, Roboto"><tspan x="0" y="17">ASK</tspan></text><text transform="translate(418 747)" fill="rgba(0,0,0,0.62)" font-size="16" font-family="Roboto-Regular, Roboto"><tspan x="0" y="17">ASK</tspan></text><text transform="translate(515 495)" fill="rgba(0,0,0,0.62)" font-size="16" font-family="HelveticaNeue, Helvetica Neue"><tspan x="0" y="15">4.10654</tspan></text><text transform="translate(515 422)" fill="rgba(0,0,0,0.62)" font-size="16" font-family="HelveticaNeue, Helvetica Neue"><tspan x="0" y="15">4.10654</tspan></text><text transform="translate(515 558)" fill="rgba(0,0,0,0.62)" font-size="16" font-family="HelveticaNeue, Helvetica Neue"><tspan x="0" y="15">4.10654</tspan></text><text transform="translate(515 621)" fill="rgba(0,0,0,0.62)" font-size="16" font-family="HelveticaNeue, Helvetica Neue"><tspan x="0" y="15">4.10654</tspan></text><text transform="translate(512 684)" fill="rgba(0,0,0,0.62)" font-size="16" font-family="HelveticaNeue, Helvetica Neue"><tspan x="0" y="15">4.10654</tspan></text><text transform="translate(515 747)" fill="rgba(0,0,0,0.62)" font-size="16" font-family="HelveticaNeue, Helvetica Neue"><tspan x="0" y="15">4.10654</tspan></text><text transform="translate(610 495)" fill="rgba(0,0,0,0.62)" font-size="16" font-family="HelveticaNeue, Helvetica Neue"><tspan x="0" y="15">$1517.10</tspan></text><text transform="translate(610 422)" fill="rgba(0,0,0,0.62)" font-size="16" font-family="HelveticaNeue, Helvetica Neue"><tspan x="0" y="15">$1717.10</tspan></text><text transform="translate(610 558)" fill="rgba(0,0,0,0.62)" font-size="16" font-family="HelveticaNeue, Helvetica Neue"><tspan x="0" y="15">$217.10</tspan></text><text transform="translate(610 621)" fill="rgba(0,0,0,0.62)" font-size="16" font-family="HelveticaNeue, Helvetica Neue"><tspan x="0" y="15">$1217.10</tspan></text><text transform="translate(607 684)" fill="rgba(0,0,0,0.62)" font-size="16" font-family="HelveticaNeue, Helvetica Neue"><tspan x="0" y="15">$6717.10</tspan></text><text transform="translate(610 747)" fill="rgba(0,0,0,0.62)" font-size="16" font-family="HelveticaNeue, Helvetica Neue"><tspan x="0" y="15">$8717.10</tspan></text><text transform="translate(710 495)" fill="rgba(0,0,0,0.62)" font-size="16" font-family="HelveticaNeue, Helvetica Neue"><tspan x="0" y="15">ETH/BTC</tspan></text><text transform="translate(710 422)" fill="rgba(0,0,0,0.62)" font-size="16" font-family="HelveticaNeue, Helvetica Neue"><tspan x="0" y="15">ETH/BTC</tspan></text><text transform="translate(710 558)" fill="rgba(0,0,0,0.62)" font-size="16" font-family="HelveticaNeue, Helvetica Neue"><tspan x="0" y="15">ETH/BTC</tspan></text><text transform="translate(710 621)" fill="rgba(0,0,0,0.62)" font-size="16" font-family="HelveticaNeue, Helvetica Neue"><tspan x="0" y="15">ETH/BTC</tspan></text><text transform="translate(707 684)" fill="rgba(0,0,0,0.62)" font-size="16" font-family="HelveticaNeue, Helvetica Neue"><tspan x="0" y="15">ETH/BTC</tspan></text><text transform="translate(710 747)" fill="rgba(0,0,0,0.62)" font-size="16" font-family="HelveticaNeue, Helvetica Neue"><tspan x="0" y="15">ETH/BTC</tspan></text></g><text transform="translate(98 902)" fill="rgba(0,0,0,0.79)" font-size="12" font-family="Roboto-Medium, Roboto" font-weight="500" letter-spacing="0.089em" opacity="0.5"><tspan x="0" y="13">Showing 1 to 6 of 15</tspan></text><g transform="translate(-97 80)"><circle cx="20" cy="20" r="20" transform="translate(390 231)" fill="#eaeaea"/><g transform="translate(210 -1629)" opacity="0.5"><rect width="24" height="24" transform="translate(188 1868)" fill="none"/><path d="M60.9,55h2V53h4V51h-4V49h-2Zm6,4V57h-10v2Zm-14-4v2h-4v2h4v2h2V55Zm6,12V65h8V63h-8V61h-2v6Zm-10-16v2h10V51Zm0,12v2h6V63Z" transform="translate(142 1822)"/></g></g><g transform="translate(-17 84)"><g transform="matrix(1, 0, 0, 1, 17, -84)" filter="url(#g)"><rect width="143" height="59" rx="4" transform="translate(293 357)" fill="#fff"/></g><text transform="translate(318 294)" fill="rgba(0,0,0,0.79)" font-size="12" font-family="Roboto-Medium, Roboto" font-weight="500" letter-spacing="0.089em"><tspan x="0" y="0">Side</tspan></text><rect width="143" height="29" transform="translate(310 303)" fill="#eaeaea"/><text transform="translate(318 323)" fill="rgba(0,0,0,0.79)" font-size="12" font-family="Roboto-Medium, Roboto" font-weight="500" letter-spacing="0.089em"><tspan x="0" y="0">Trading pair symbol</tspan></text></g><g transform="matrix(1, 0, 0, 1, 0, 0)" filter="url(#i)"><path d="M580-1383H963.174v-56H580Z" transform="translate(-98.17 1740)" fill="#fff"/></g><rect width="294" height="36" rx="2" transform="translate(492 311)" fill="#dedede" opacity="0.332"/><text transform="translate(504 334)" fill="rgba(0,0,0,0.55)" font-size="12" font-family="Roboto-Medium, Roboto" font-weight="500" letter-spacing="0.089em"><tspan x="0" y="0">Type here</tspan></text><g transform="matrix(1, 0, 0, 1, 0, 0)" filter="url(#k)"><rect width="57" height="35" rx="2" transform="translate(792 311)" fill="rgba(0,0,0,0.02)"/></g><g transform="translate(-169 408)" opacity="0.5"><rect width="24" height="24" transform="translate(978 -91)" fill="none"/><path d="M920.5-1404h-.794l-.276-.274A6.469,6.469,0,0,0,921-1408.5a6.5,6.5,0,0,0-6.5-6.5,6.5,6.5,0,0,0-6.5,6.5,6.5,6.5,0,0,0,6.5,6.5,6.47,6.47,0,0,0,4.225-1.566l.276.274v.792l5,4.991L925.49-1399l-4.988-5Zm-6,0a4.5,4.5,0,0,1-4.5-4.5,4.5,4.5,0,0,1,4.5-4.5,4.5,4.5,0,0,1,4.5,4.5,4.5,4.5,0,0,1-4.5,4.5Z" transform="translate(73 1327)" fill-rule="evenodd"/></g></g></svg>